<svg xmlns="http://www.w3.org/2000/svg" version="1.1" xmlns:xlink="http://www.w3.org/1999/xlink" xmlns:svgjs="http://svgjs.dev/svgjs" width="2000" height="1697" viewBox="0 0 2000 1697"><g transform="matrix(1,0,0,1,-1.2663908641198987,0.6890693376386707)"><svg viewBox="0 0 291 247" data-background-color="#ffffff" preserveAspectRatio="xMidYMid meet" height="1697" width="2000" xmlns="http://www.w3.org/2000/svg" xmlns:xlink="http://www.w3.org/1999/xlink"><g id="tight-bounds" transform="matrix(1,0,0,1,0.1842598707294485,-0.10008370589051196)"><svg viewBox="0 0 290.6314802585411 247.2" height="247.2" width="290.6314802585411"><rect width="290.6314697265625" height="247.20037841796875" fill="url(#44126804-6733-450f-a4f8-1294a2b820cc)" mask="url(&quot;#14c2d943-96be-418a-8340-243bd87f26bc&quot;)" data-fill-palette-color="tertiary"></rect><g><svg viewBox="0 0 290.6314802585411 247.2" height="247.2" width="290.6314802585411"><g><svg viewBox="0 0 290.6314802585411 247.2" height="247.2" width="290.6314802585411"><g id="textblocktransform"><svg viewBox="0 0 290.6314802585411 247.2" height="247.2" width="290.6314802585411" id="textblock"><g><svg viewBox="0 0 290.6314802585411 247.2" height="247.2" width="290.6314802585411"><path d="M289.951 53.02C288.585 27.36 284.691 20.227 284.691 20.227 272.735-6.202 257.815-0.506 244.412 3.292 220.747 3.446 197.178 9.091 173.568 12.119 124.011 12.581 74.031 4.986 24.721 23.717 20.089 29.464-4.805 24.846 0.824 56.304 2.3 69.39 7.683 83.913 7.519 95.922 8.257 98.026 9.281 93.202 9.719 96.23 11.249 104.39 13.749 100.541 15.799 105.365 12.943 118.246 14.993 128.971 16.946 140.21 13.503 143.135 9.09 141.749 7.109 151.449 6.904 158.479 5.797 157.145 4.581 156.837 3.693 156.632 1.903 157.402 2.204 159.608 3.229 167.152-1.171 171.514 1.589 178.904-0.31 186.91 2.901 193.838 2.463 202.511 2.409 204.255 2.709 205.744 3.188 206.154 5.305 208.361 2.218 212.672 2.545 217.342 24.27 249.262 47.839 227.195 70.096 241.872 75.876 231.608 71.531 245.516 73.84 243.36 75.644 240.846 76.955 251.263 78.991 245.362 79.305 243.668 78.827 239.665 79.948 240.435 80.535 240.846 81.054 240.743 81.136 238.382 81.259 234.841 80.18 237.048 79.893 235.201 82.994 225.861 82.229 248.081 85.14 247.158 85.003 244.438 84.156 240.538 85.891 241.051 87.613 237.151 87.667 233.918 89.198 242.693 89.252 244.592 89.525 245.926 89.963 246.85 94.745 237.305 99.5 250.237 104.514 245.926 107.588 241.205 110.539 248.492 113.655 246.696 114.748 245.259 115.854 242.693 116.906 247.004 129.791 247.928 143.522 244.079 155.737 247.158 188.379 241.41 223.261 249.518 257.679 241.923 265.794 238.998 274.225 234.841 282.136 231.506 282.136 231.506 288.544 222.371 288.544 181.316S289.91 145.393 290.115 112.703C290.32 80.013 291.276 78.679 289.91 53.02Z" opacity="1" fill="url(#44126804-6733-450f-a4f8-1294a2b820cc)" data-fill-palette-color="tertiary"></path><g transform="matrix(1,0,0,1,55.76832,26.230666666666668)"><svg width="179.0948402585411" viewBox="-1.5 -35.5 33.20000076293945 36.099998474121094" height="194.73866666666666" data-palette-color="#ffffff"><path d="M4.75-0.65L4.75-0.65Q4.4 0.45 2.43 0.45 0.45 0.45-1.5-0.9L-1.5-0.9Q0.05-5.1 4.67-14.88 9.3-24.65 10.85-29.45L10.85-29.45Q11-30.05 11-30.48 11-30.9 10.65-31.65 10.3-32.4 9.9-32.85L9.9-32.85 9.55-33.3 9.75-34.3Q14.2-35.5 20.3-35.5L20.3-35.5 24.15-35.3Q24.65-34.85 25.15-32.95 25.65-31.05 25.8-27.25 25.95-23.45 26-13L26-13Q26.05-4.95 28-4.95L28-4.95Q28.5-4.95 30.15-5.45L30.15-5.45 30.65-5.6 31.7-2.75Q29.65-1.2 26.9-0.3 24.15 0.6 21.95 0.6L21.95 0.6Q18.75 0.6 17.57-1.38 16.4-3.35 16.4-6.48 16.4-9.6 16.45-10.8L16.45-10.8Q15.5-11 12.75-11 10-11 8-10.45L8-10.45Q6.15-5.5 4.75-0.65ZM9.8-15L16.65-15Q16.9-19.35 16.9-23.75 16.9-28.15 16.4-30.15L16.4-30.15Q15.9-30.15 15.7-30.05L15.7-30.05Q14.6-26.7 9.8-15L9.8-15Z" opacity="1" transform="matrix(1,0,0,1,0,0)" fill="#ffffff" class="undefined-text-0" data-fill-palette-color="quaternary" id="text-0"></path></svg></g></svg></g></svg></g></svg></g><g></g></svg></g><defs></defs><mask id="14c2d943-96be-418a-8340-243bd87f26bc"><g id="SvgjsG2625"><svg viewBox="0 0 290.6314802585411 247.2" height="247.2" width="290.6314802585411"><g><svg viewBox="0 0 290.6314802585411 247.2" height="247.2" width="290.6314802585411"><g><svg viewBox="0 0 290.6314802585411 247.2" height="247.2" width="290.6314802585411"><g id="SvgjsG2624"><svg viewBox="0 0 290.6314802585411 247.2" height="247.2" width="290.6314802585411" id="SvgjsSvg2623"><g><svg viewBox="0 0 290.6314802585411 247.2" height="247.2" width="290.6314802585411"><path d="M289.951 53.02C288.585 27.36 284.691 20.227 284.691 20.227 272.735-6.202 257.815-0.506 244.412 3.292 220.747 3.446 197.178 9.091 173.568 12.119 124.011 12.581 74.031 4.986 24.721 23.717 20.089 29.464-4.805 24.846 0.824 56.304 2.3 69.39 7.683 83.913 7.519 95.922 8.257 98.026 9.281 93.202 9.719 96.23 11.249 104.39 13.749 100.541 15.799 105.365 12.943 118.246 14.993 128.971 16.946 140.21 13.503 143.135 9.09 141.749 7.109 151.449 6.904 158.479 5.797 157.145 4.581 156.837 3.693 156.632 1.903 157.402 2.204 159.608 3.229 167.152-1.171 171.514 1.589 178.904-0.31 186.91 2.901 193.838 2.463 202.511 2.409 204.255 2.709 205.744 3.188 206.154 5.305 208.361 2.218 212.672 2.545 217.342 24.27 249.262 47.839 227.195 70.096 241.872 75.876 231.608 71.531 245.516 73.84 243.36 75.644 240.846 76.955 251.263 78.991 245.362 79.305 243.668 78.827 239.665 79.948 240.435 80.535 240.846 81.054 240.743 81.136 238.382 81.259 234.841 80.18 237.048 79.893 235.201 82.994 225.861 82.229 248.081 85.14 247.158 85.003 244.438 84.156 240.538 85.891 241.051 87.613 237.151 87.667 233.918 89.198 242.693 89.252 244.592 89.525 245.926 89.963 246.85 94.745 237.305 99.5 250.237 104.514 245.926 107.588 241.205 110.539 248.492 113.655 246.696 114.748 245.259 115.854 242.693 116.906 247.004 129.791 247.928 143.522 244.079 155.737 247.158 188.379 241.41 223.261 249.518 257.679 241.923 265.794 238.998 274.225 234.841 282.136 231.506 282.136 231.506 288.544 222.371 288.544 181.316S289.91 145.393 290.115 112.703C290.32 80.013 291.276 78.679 289.91 53.02Z" opacity="1" fill="white"></path><g transform="matrix(1,0,0,1,55.76832,26.230666666666668)"><svg width="179.0948402585411" viewBox="-1.5 -35.5 33.20000076293945 36.099998474121094" height="194.73866666666666" data-palette-color="#ffffff"></svg></g></svg></g></svg></g></svg></g><g></g></svg></g><defs><mask></mask></defs></svg></g></mask><linearGradient x1="0.054" x2="0.941" y1="0.5" y2="0.5" id="44126804-6733-450f-a4f8-1294a2b820cc"><stop stop-color="#0f3054" offset="0"></stop><stop stop-color="#3b8dcb" offset="0.498"></stop><stop stop-color="#0f3054" offset="1"></stop></linearGradient></svg><rect width="290.6314802585411" height="247.2" fill="none" stroke="none" visibility="hidden"></rect></g></svg></g></svg>